<svg viewBox="0 0 64 64" xmlns="http://www.w3.org/2000/svg">
      <style>
    #bg{fill: #323437;}
    path{fill: #e2b714;}
  </style>
    <g>
        <path id="bg" d="M0 16Q0 0 16 0h32q16 0 16 16v32q0 16-16 16H16Q0 64 0 48"/>
        <path d="M12.79 24.1v21.2h5.12V33.1q.256-4.61 4.48-4.61 3.46.384 3.46 3.84v12.9h5.12v-11.5q-.128-5.25 4.48-5.25 3.46.384 3.46 3.84v12.9h5.12v-12.2q0-9.47-7.04-9.47-4.22 0-7.04 3.46-2.18-3.46-6.02-3.46-3.46 0-6.02 2.43v-2.05M46.1 18.9v26.34h5.12v-26.34"/>
    </g>
</svg>